# xmcd CD database file generated by Grip 3.2.0
# 
# Track frame offsets:
#       182
#       13430
#       23870
#       34965
#       53515
#       64482
#       75332
#       84632
#       94345
#       105872
#       116677
#       126180
#       136830
#       148527
#       158235
#       170010
# 
# Disc length: 2402 seconds
# 
# Revision: 4
# Processed by: cddbd v1.5.2PL0 Copyright (c) Steve Scherf et al.
# Submitted via: Grip 3.2.0
# 
DISCID=d5096010
DTITLE=Little Richard - Greatest Hits
DYEAR=1987
DGENRE=Blues
TTITLE0=Whole Lotta Shakin' Goin' On
TTITLE1=Money Honey
TTITLE2=Lucille
TTITLE3=I Don't Know What You Got
TTITLE4=She's Got It
TTITLE5=Hound Dog
TTITLE6=Jenny Jenny
TTITLE7=Good Golly Miss Molly
TTITLE8=The Girl Can't Help It
TTITLE9=Tutti Frutti
TTITLE10=Goodnight Irene
TTITLE11=Keep A Knockin'
TTITLE12=Cherry Red
TTITLE13=Long Tall Sally
TTITLE14=Slippin' And Slidin'
TTITLE15=Groovy Litlle Suzy
EXTD=YEAR: 1987
EXTT0=
EXTT1=
EXTT2=
EXTT3=
EXTT4=
EXTT5=
EXTT6=
EXTT7=
EXTT8=
EXTT9=
EXTT10=
EXTT11=
EXTT12=
EXTT13=
EXTT14=
EXTT15=
PLAYORDER=
